<svg width="50" height="50" viewBox="0 0 50 50" fill="none" xmlns="http://www.w3.org/2000/svg">
<g opacity="0.6">
<path d="M35.417 12.5C40.3036 12.5 41.7052 12.5 43.3884 13.7915C43.8217 14.124 44.2096 14.5119 44.5421 14.9452C45.8337 16.6284 45.8337 19.0717 45.8337 23.9583V33.3333C45.8337 39.2259 45.8337 42.1722 44.0031 44.0028C42.1725 45.8333 39.2262 45.8333 33.3337 45.8333H16.667C10.7744 45.8333 7.82816 45.8333 5.99757 44.0028C4.16699 42.1722 4.16699 39.2259 4.16699 33.3333V23.9583C4.16699 19.0717 4.16699 16.6284 5.45853 14.9452C5.79104 14.5119 6.17891 14.124 6.61223 13.7915C8.2954 12.5 9.69704 12.5 14.5837 12.5" stroke="#ECEFEF" stroke-width="1.5" stroke-linecap="round"/>
<path d="M35.4163 14.5837L33.5709 9.96997C32.7746 7.97941 32.0817 5.72137 30.0344 4.70772C28.9422 4.16699 27.628 4.16699 24.9997 4.16699C22.3713 4.16699 21.0572 4.16699 19.965 4.70772C17.9176 5.72137 17.2247 7.97942 16.4285 9.96997L14.583 14.5837" stroke="#ECEFEF" stroke-width="1.5" stroke-linecap="round" stroke-linejoin="round"/>
<path d="M32.2913 29.1667C32.2913 33.1937 29.0268 36.4583 24.9997 36.4583C20.9726 36.4583 17.708 33.1937 17.708 29.1667C17.708 25.1396 20.9726 21.875 24.9997 21.875C29.0268 21.875 32.2913 25.1396 32.2913 29.1667Z" stroke="#ECEFEF" stroke-width="1.5"/>
<path d="M24.9996 12.5H25.0183" stroke="#ECEFEF" stroke-width="2" stroke-linecap="round" stroke-linejoin="round"/>
</g>
</svg>
