<svg width="18" height="18" viewBox="0 0 18 18" fill="none" xmlns="http://www.w3.org/2000/svg">
<path d="M15 8.25003V5.86367C15 4.59374 15 3.95877 14.799 3.45164C14.4759 2.63636 13.7927 1.99327 12.9264 1.68918C12.3876 1.50003 11.7129 1.50003 10.3636 1.50003C8.00236 1.50003 6.82172 1.50003 5.87877 1.83105C4.36285 2.3632 3.16711 3.4886 2.6017 4.91535C2.25 5.80283 2.25 6.91402 2.25 9.1364V11.0455C2.25 13.3475 2.25 14.4985 2.88578 15.2979C3.06794 15.5269 3.28397 15.7302 3.5273 15.9017C4.31097 16.4538 5.41279 16.4965 7.5 16.4998" stroke="#5A6565" stroke-width="1.5" stroke-linecap="round" stroke-linejoin="round"/>
<path d="M2.25 9C2.25 7.61929 3.36929 6.5 4.75 6.5C5.24934 6.5 5.83803 6.58749 6.32352 6.45741C6.75489 6.34182 7.09182 6.00489 7.20741 5.57352C7.3375 5.08803 7.25 4.49934 7.25 4C7.25 2.61929 8.36929 1.5 9.75 1.5" stroke="#5A6565" stroke-width="1.5" stroke-linecap="round" stroke-linejoin="round"/>
<path d="M10.7608 16.3918L10.604 15.6584H10.604L10.7608 16.3918ZM9.85821 15.4892L10.5916 15.646L9.85821 15.4892ZM10.5155 13.5838L9.98518 13.0535H9.98518L10.5155 13.5838ZM15.5972 11.608L16.2467 11.233V11.233L15.5972 11.608ZM15.5972 12.7486L16.2467 13.1236L15.5972 12.7486ZM14.642 10.6528L15.017 10.0033H15.017L14.642 10.6528ZM12.9964 11.1029L13.5267 11.6332L12.9964 11.1029ZM13.5014 10.6528L13.1264 10.0033L13.5014 10.6528ZM15.1471 13.2536L14.6168 12.7233L12.1359 15.2042L12.6662 15.7345L13.1965 16.2648L15.6774 13.7839L15.1471 13.2536ZM10.5155 13.5838L11.0458 14.1141L13.5267 11.6332L12.9964 11.1029L12.4661 10.5726L9.98518 13.0535L10.5155 13.5838ZM10.7608 16.3918L10.604 15.6584C10.4716 15.6867 10.3692 15.7085 10.2818 15.7248C10.1934 15.7412 10.1422 15.7476 10.1128 15.7495C10.0819 15.7515 10.1065 15.746 10.1587 15.7595C10.2234 15.7762 10.302 15.8145 10.3687 15.8812L9.83842 16.4116L9.30809 16.9419C9.60751 17.2413 9.97823 17.2611 10.208 17.2465C10.4243 17.2327 10.6832 17.1753 10.9176 17.1252L10.7608 16.3918ZM9.85821 15.4892L9.12479 15.3324C9.07467 15.5668 9.01727 15.8257 9.00352 16.042C8.98891 16.2718 9.00867 16.6425 9.30809 16.9419L9.83842 16.4116L10.3687 15.8812C10.4355 15.948 10.4738 16.0266 10.4905 16.0913C10.504 16.1435 10.4985 16.1681 10.5005 16.1372C10.5024 16.1078 10.5088 16.0566 10.5252 15.9682C10.5415 15.8808 10.5633 15.7784 10.5916 15.646L9.85821 15.4892ZM15.1471 11.1029L14.6168 11.6332C14.7466 11.7631 14.8261 11.8428 14.8838 11.906C14.9388 11.9663 14.9486 11.9846 14.9477 11.983L15.5972 11.608L16.2467 11.233C16.1098 10.9959 15.8933 10.7884 15.6774 10.5726L15.1471 11.1029ZM15.1471 13.2536L15.6774 13.7839C15.8933 13.5681 16.1098 13.3607 16.2467 13.1236L15.5972 12.7486L14.9477 12.3736C14.9486 12.3719 14.9388 12.3903 14.8838 12.4505C14.8261 12.5137 14.7466 12.5935 14.6168 12.7233L15.1471 13.2536ZM15.5972 11.608L14.9477 11.983C15.0174 12.1038 15.0174 12.2527 14.9477 12.3736L15.5972 12.7486L16.2467 13.1236C16.5844 12.5386 16.5844 11.8179 16.2467 11.233L15.5972 11.608ZM15.1471 11.1029L15.6774 10.5726C15.4616 10.3567 15.2541 10.1402 15.017 10.0033L14.642 10.6528L14.267 11.3023C14.2654 11.3014 14.2837 11.3112 14.344 11.3662C14.4072 11.4239 14.4869 11.5034 14.6168 11.6332L15.1471 11.1029ZM12.9964 11.1029L13.5267 11.6332C13.6565 11.5034 13.7363 11.4239 13.7995 11.3662C13.8597 11.3112 13.8781 11.3014 13.8764 11.3023L13.5014 10.6528L13.1264 10.0033C12.8893 10.1402 12.6819 10.3567 12.4661 10.5726L12.9964 11.1029ZM14.642 10.6528L15.017 10.0033C14.4321 9.66557 13.7114 9.66557 13.1264 10.0033L13.5014 10.6528L13.8764 11.3023C13.9973 11.2326 14.1462 11.2326 14.267 11.3023L14.642 10.6528ZM12.6662 15.7345L12.1359 15.2042C12.023 15.3171 11.8594 15.4005 11.5903 15.4693C11.4553 15.5037 11.3095 15.5308 11.1403 15.56C10.98 15.5877 10.7882 15.619 10.604 15.6584L10.7608 16.3918L10.9176 17.1252C11.0643 17.0939 11.2141 17.0695 11.3957 17.0381C11.5684 17.0083 11.7646 16.9729 11.9613 16.9226C12.3555 16.822 12.8138 16.6475 13.1965 16.2648L12.6662 15.7345ZM9.85821 15.4892L10.5916 15.646C10.631 15.4618 10.6623 15.27 10.69 15.1097C10.7192 14.9405 10.7463 14.7947 10.7807 14.6597C10.8495 14.3906 10.9329 14.227 11.0458 14.1141L10.5155 13.5838L9.98518 13.0535C9.60247 13.4362 9.42801 13.8945 9.32737 14.2887C9.27713 14.4854 9.2417 14.6816 9.21186 14.8543C9.18049 15.0359 9.15615 15.1857 9.12479 15.3324L9.85821 15.4892Z" fill="#5A6565"/>
</svg>
